<svg width="20" height="17" viewBox="0 0 20 17" fill="none" xmlns="http://www.w3.org/2000/svg">
<g clip-path="url(#clip0_22_722)">
<path d="M18.4465 10.9311C17.6258 12.1358 14.8904 14.0692 11.3078 15.9765C9.95267 16.698 8.52909 17.0411 7.07636 16.9959C5.84769 16.9573 4.83265 16.6588 4.0914 16.4406C3.84923 16.3695 3.6399 16.3078 3.46372 16.2674C2.94192 16.1478 2.15525 15.8124 1.30503 15.3476C0.741495 15.0393 0.125166 14.6561 0.0180447 14.5113C0.0109851 14.5018 0.00638105 14.4933 0.00392556 14.486C-0.0015993 14.4702 -0.00129237 14.454 0.00484637 14.4404C0.00668799 14.436 0.00914348 14.4316 0.0122129 14.4278C0.0975413 14.3178 0.324675 14.0256 2.65064 14.1183C5.53523 14.233 8.42167 12.6423 10.6577 10.8824C11.3118 10.3677 11.9217 9.79 12.456 9.14404C13.0082 8.47657 13.3477 7.74492 13.7823 7.00757C14.2753 6.17126 15.4257 5.58948 16.3188 5.33369C16.3281 5.33116 16.3379 5.33148 16.3471 5.33496C16.4496 5.3729 18.3551 6.08653 19.3339 6.70182C19.608 6.87383 19.8093 7.03824 19.8784 7.178C20.2044 7.83788 19.2375 9.76977 18.4465 10.9308V10.9311Z" fill="#FF2311"/>
<path opacity="0.6" d="M18.4465 10.9311C17.6258 12.1358 14.8904 14.0693 11.3078 15.9765C9.95267 16.698 8.52909 17.0411 7.07636 16.9959C5.84769 16.9573 4.83265 16.6588 4.0914 16.4406C3.84923 16.3695 3.6399 16.3078 3.46372 16.2674C2.94192 16.1479 2.15525 15.8124 1.30503 15.3476C0.741495 15.0393 0.125166 14.6561 0.0180447 14.5113C0.0109851 14.5018 0.00638105 14.4933 0.00392556 14.486C-0.0015993 14.4702 -0.00129237 14.4541 0.00484637 14.4405C1.34217 14.7725 3.32161 15.8544 4.5159 16.1415C8.85015 17.1827 11.8388 14.7785 13.4137 13.8024C14.0886 13.3841 14.7077 12.8782 15.3201 12.3682C16.2728 11.5749 17.2234 10.7582 17.9665 9.75523C18.3695 9.21139 18.7074 8.61064 18.933 7.96594C19.0665 7.58494 19.0963 7.05659 19.3339 6.70215C19.608 6.87415 19.8093 7.03857 19.8784 7.17832C20.2044 7.8382 19.2375 9.77009 18.4465 10.9311V10.9311Z" fill="#C91B16"/>
<path style="mix-blend-mode:lighten" d="M7.57823 15.4817C8.73967 15.2831 9.86368 14.8765 10.8799 14.252C11.9579 13.5896 12.9435 12.7824 13.9625 12.0276C14.744 11.4487 15.5491 10.8979 16.2642 10.2342C16.9794 9.57057 17.6092 8.78074 17.9478 7.85274C18.0509 7.56975 18.1267 7.25768 18.0448 6.96711C17.9462 6.61741 17.6384 6.37078 17.3155 6.22312C16.7053 5.94425 15.9815 5.94235 15.3701 6.2187C14.907 6.42801 14.5135 6.79415 14.2575 7.24282C13.9837 7.72279 13.9303 8.3071 13.623 8.76841C13.3011 9.25186 12.8551 9.63602 12.4202 10.0066C11.0147 11.2037 9.65005 12.6107 7.99412 13.4185C7.54661 13.6367 6.86767 14.0221 6.36398 14.0221C5.68013 14.2011 4.97878 14.2975 4.28817 14.4512C3.22586 14.6874 2.20959 14.3285 1.47632 14.4028C1.418 14.4088 1.36828 14.4926 1.41493 14.5293C1.68535 14.7427 2.52083 15.0716 2.70407 15.1301C4.27559 15.6322 5.96312 15.7583 7.57792 15.482L7.57823 15.4817Z" fill="url(#paint0_linear_22_722)"/>
<path style="mix-blend-mode:lighten" d="M11.2758 11.6236C12.801 10.4749 13.6171 9.70876 14.0622 8.96415C14.4394 8.33304 14.5011 7.69909 15.0177 7.05186C15.1785 6.85013 15.3446 6.63924 15.5738 6.52794C15.8031 6.41664 16.3096 6.47514 16.4566 6.68762C16.9931 7.46417 16.3986 8.61097 16.0883 9.15386C15.681 9.86654 14.134 11.2287 13.3258 11.5885C12.6932 11.8702 11.6684 12.5687 11.1466 12.9165C10.735 13.1906 10.0422 13.6601 9.43266 13.5283C9.09011 13.454 9.50632 13.1138 9.65211 12.9901C10.1908 12.5345 10.7107 12.0492 11.2758 11.6236V11.6236Z" fill="url(#paint1_linear_22_722)"/>
<path opacity="0.6" d="M15.0718 7.48362C14.9923 7.64076 14.9392 7.80803 14.9208 7.91774C14.8699 8.22444 15.237 8.13212 15.3938 8.03821C15.5853 7.92375 16.0003 7.2702 15.6737 7.10135C15.4236 6.97203 15.2084 7.21328 15.0715 7.48362H15.0718Z" fill="#FFD4D4"/>
<path opacity="0.6" d="M15.2125 8.00631C15.6422 8.1644 15.4044 8.55268 14.8749 9.1762C13.8006 10.4409 13.0517 10.7423 13.0026 10.7255C12.9535 10.7087 13.6164 10.2828 14.2303 9.36591C14.6797 8.69465 14.9838 7.92221 15.2125 8.00631Z" fill="#FFD4D4"/>
<path d="M19.9351 8.06139C19.8927 8.1749 19.8332 8.2511 19.7758 8.26502C19.7549 8.27008 19.7303 8.26122 19.7009 8.23782C19.696 8.23403 19.691 8.22992 19.6861 8.22518C19.5738 8.12463 19.3967 7.8369 19.1115 7.35377C18.9605 7.09798 18.7764 6.7859 18.7003 6.70528C18.6907 6.69516 18.6828 6.68852 18.6769 6.68631C18.6659 6.68472 18.6444 6.68852 18.6152 6.69611C18.5244 6.71982 18.3605 6.7799 18.2113 6.8346C17.7976 6.98573 17.4971 7.08976 17.397 7.04865C17.393 7.04707 17.3893 7.04518 17.3856 7.04296C17.3258 7.00723 17.284 6.89088 17.2457 6.71381C17.2239 6.61453 17.2033 6.49628 17.1809 6.36253C17.1518 6.18958 17.1195 5.99765 17.0845 5.91102C17.0766 5.8911 17.0686 5.87656 17.0603 5.86928C17.0471 5.85727 17.0075 5.84968 16.9516 5.84525C16.8479 5.83672 16.6886 5.83861 16.5419 5.84019C16.0578 5.84557 15.699 5.83925 15.5904 5.71973C15.5873 5.71625 15.5842 5.71277 15.5815 5.70898C15.575 5.70012 15.5698 5.69095 15.5658 5.68115C15.5452 5.63056 15.5532 5.56796 15.5894 5.49524C15.5919 5.48986 15.5947 5.48449 15.5977 5.47911C15.6109 5.45476 15.6278 5.42884 15.6478 5.40228C15.866 5.10981 16.4648 4.70224 17.1042 4.5998C17.529 4.53182 17.8503 4.19698 18.079 3.84349C18.2552 3.57157 18.4179 3.27119 18.4931 2.94647C18.5762 2.58855 18.529 2.22019 18.471 1.86196C18.3918 1.3725 17.9909 0.914033 17.68 0.54631C17.6634 0.526706 17.6459 0.505838 17.6407 0.480227C17.6358 0.456513 17.6419 0.432167 17.6481 0.408769C17.6714 0.32087 17.7165 0.179219 17.7905 0.0881577C17.8439 0.0214427 17.913 -0.0183966 18.0001 0.00847908C18.3246 0.109026 18.8813 1.03134 18.971 1.51889C19.0729 2.0738 19.0278 3.24748 18.9915 4.19034L18.9906 4.21374C18.9869 4.3067 18.9829 4.3927 18.979 4.47269C18.9443 5.19581 18.9326 5.43927 19.5532 6.37202C20.0317 7.09102 20.0643 7.71612 19.9351 8.06139V8.06139Z" fill="#4F970F"/>
<path opacity="0.5" d="M19.9351 8.06139C19.8927 8.1749 19.8332 8.2511 19.7758 8.26502C19.7549 8.27008 19.7303 8.26122 19.7009 8.23782C19.696 8.23403 19.691 8.22992 19.6861 8.22518C19.5738 8.12463 19.3967 7.8369 19.1115 7.35377C18.9605 7.09798 18.7764 6.7859 18.7003 6.70528C18.6907 6.69516 18.6828 6.68852 18.6769 6.68631C18.6659 6.68472 18.6444 6.68852 18.6152 6.69611C18.5244 6.71982 18.3605 6.7799 18.2113 6.8346C17.7976 6.98573 17.4971 7.08976 17.397 7.04865C17.393 7.04707 17.3893 7.04518 17.3856 7.04296C17.3258 7.00723 17.284 6.89088 17.2457 6.71381C17.2239 6.61453 17.2033 6.49628 17.1809 6.36253C17.1518 6.18958 17.1195 5.99765 17.0845 5.91102C17.0766 5.8911 17.0686 5.87656 17.0603 5.86928C17.0471 5.85727 17.0075 5.84968 16.9516 5.84525C16.8479 5.83672 16.6886 5.83861 16.5419 5.84019C16.0578 5.84557 15.699 5.83925 15.5904 5.71973C15.5873 5.71625 15.5842 5.71277 15.5815 5.70898C15.575 5.70012 15.5698 5.69095 15.5658 5.68115C15.5452 5.63056 15.5532 5.56796 15.5894 5.49524C15.5919 5.48986 15.5947 5.48449 15.5977 5.47911C15.6109 5.45476 15.6278 5.42884 15.6478 5.40228C15.6478 5.50061 15.6579 5.59167 15.6886 5.64448C15.8203 5.87086 16.2936 5.64416 16.4796 5.61855C16.758 5.57997 17.0781 5.63594 17.2828 5.8481C17.4556 6.02674 17.4731 6.34356 17.6864 6.46751C17.862 6.56932 18.0812 6.48679 18.2632 6.39826C18.4455 6.30941 18.6548 6.21392 18.8405 6.29487C18.979 6.35494 19.0637 6.49786 19.1809 6.59493C19.2058 6.6158 19.2352 6.6354 19.2672 6.63319C19.3138 6.63002 19.347 6.5807 19.35 6.53296C19.3623 6.34261 19.1806 6.13045 19.0953 5.97299C19.0201 5.83419 18.9452 5.69412 18.885 5.54741C18.8052 5.35264 18.773 5.15976 18.7886 4.94887C18.8193 4.53783 18.7886 4.03193 18.8807 2.70396C18.9728 1.37598 18.6966 1.34436 18.5738 0.901702C18.4618 0.497617 17.8893 0.146336 17.7905 0.0881577C17.8439 0.0214427 17.913 -0.0183966 18.0001 0.00847908C18.3246 0.109026 18.8813 1.03134 18.971 1.51889C19.0729 2.0738 19.0278 3.24748 18.9915 4.19034L18.9906 4.21374C18.9869 4.3067 18.9829 4.3927 18.979 4.47269C18.9443 5.19581 18.9326 5.43927 19.5532 6.37202C20.0317 7.09102 20.0643 7.71612 19.9351 8.06139V8.06139Z" fill="#3F720E"/>
<path d="M18.4213 3.87341C18.4879 3.89048 18.3599 4.34769 18.4213 4.60063C18.4826 4.85358 18.6361 5.32786 18.5747 5.3911C18.5133 5.45433 18.2371 4.94844 18.0836 5.01167C17.9302 5.07491 18.4826 5.86537 18.1757 6.02347C17.8688 6.18156 17.3163 5.07491 16.5183 5.20138C16.3034 5.16977 17.1628 4.82196 17.6232 4.60063C18.0836 4.3793 18.2985 3.84179 18.4213 3.87341V3.87341Z" fill="url(#paint2_linear_22_722)"/>
<path d="M17.1172 4.92834C17.0546 4.94857 16.9914 4.97197 16.9411 5.01497C16.9294 5.02509 16.9177 5.03742 16.9162 5.05291C16.9128 5.0877 16.957 5.10319 16.9908 5.10856C17.0479 5.11773 17.1047 5.13291 17.1562 5.1601C17.2176 5.19267 17.2698 5.24136 17.3299 5.27582C17.3904 5.31029 17.4656 5.32989 17.5279 5.29891C17.5657 5.28025 17.5933 5.24547 17.6188 5.21132C17.6716 5.13987 17.7201 5.06493 17.7637 4.98715C17.7913 4.93782 17.8174 4.88597 17.8229 4.82937C17.8278 4.7791 17.8075 4.67855 17.7443 4.68171C17.7188 4.68298 17.6771 4.72345 17.6541 4.73641C17.6206 4.75507 17.5862 4.77151 17.5513 4.78637C17.4107 4.84645 17.2618 4.88154 17.1169 4.92834H17.1172Z" fill="#84C93D"/>
<path style="mix-blend-mode:lighten" opacity="0.5" d="M18.3791 0.747902C18.2643 0.573684 18.0998 0.431717 17.9049 0.368164C17.8926 0.439306 17.881 0.517087 17.915 0.580008C17.9245 0.597714 17.9371 0.613207 17.95 0.628384C18.0246 0.715968 18.1225 0.766557 18.1744 0.86995C18.3137 1.14819 18.4641 1.52129 18.5427 1.56556C18.5427 1.18613 18.5427 0.996424 18.3791 0.748218V0.747902Z" fill="url(#paint3_linear_22_722)"/>
</g>
<defs>
<linearGradient id="paint0_linear_22_722" x1="16.5638" y1="8.56479" x2="2.75978" y2="14.9646" gradientUnits="userSpaceOnUse">
<stop stop-color="#FE492E"/>
<stop offset="0.44" stop-color="#FC482D"/>
<stop offset="0.6" stop-color="#F5462C"/>
<stop offset="0.71" stop-color="#E9432B"/>
<stop offset="0.81" stop-color="#D83F28"/>
<stop offset="0.89" stop-color="#C23925"/>
<stop offset="0.95" stop-color="#A83222"/>
<stop offset="1" stop-color="#912C1F"/>
</linearGradient>
<linearGradient id="paint1_linear_22_722" x1="16.2718" y1="7.19067" x2="10.189" y2="13.749" gradientUnits="userSpaceOnUse">
<stop stop-color="#FE7147"/>
<stop offset="0.31" stop-color="#FB7046"/>
<stop offset="0.48" stop-color="#F36C44"/>
<stop offset="0.6" stop-color="#E66742"/>
<stop offset="0.72" stop-color="#D3603E"/>
<stop offset="0.81" stop-color="#BA5639"/>
<stop offset="0.91" stop-color="#9C4A33"/>
<stop offset="0.99" stop-color="#783C2C"/>
<stop offset="1" stop-color="#733A2B"/>
</linearGradient>
<linearGradient id="paint2_linear_22_722" x1="17.5548" y1="4.32587" x2="17.5222" y2="5.90675" gradientUnits="userSpaceOnUse">
<stop stop-color="#6DB528"/>
<stop offset="0.87" stop-color="#539B12"/>
<stop offset="1" stop-color="#4F970F"/>
</linearGradient>
<linearGradient id="paint3_linear_22_722" x1="18.0544" y1="0.537323" x2="18.4969" y2="1.18414" gradientUnits="userSpaceOnUse">
<stop stop-color="#76BC33"/>
<stop offset="0.43" stop-color="#74BA32"/>
<stop offset="0.59" stop-color="#70B330"/>
<stop offset="0.7" stop-color="#69A72D"/>
<stop offset="0.79" stop-color="#5E9628"/>
<stop offset="0.87" stop-color="#508022"/>
<stop offset="0.93" stop-color="#3F661B"/>
<stop offset="0.99" stop-color="#2C4612"/>
<stop offset="1" stop-color="#2A4312"/>
</linearGradient>
<clipPath id="clip0_22_722">
<rect width="20" height="17" fill="white"/>
</clipPath>
</defs>
</svg>
